<?xml version="1.0" encoding="utf-8"?>
<!-- Generator: Adobe Illustrator 24.0.1, SVG Export Plug-In . SVG Version: 6.00 Build 0)  -->
<svg version="1.1" xmlns="http://www.w3.org/2000/svg" xmlns:xlink="http://www.w3.org/1999/xlink" x="0px" y="0px"
	 viewBox="0 0 370.3 102.1" style="enable-background:new 0 0 370.3 102.1;" xml:space="preserve">
<style type="text/css">
	.st0{display:none;}
	.st1{display:inline;fill:#FFFFFF;}
	.st2{fill:none;}
	.st3{fill:#E3A645;}
	.st4{fill:#D0665B;}
	.st5{fill:#9ACCE5;}
	.st6{fill:#434043;}
	.st7{font-family:'Roboto-BlackItalic';}
	.st8{font-size:39.1306px;}
	.st9{font-size:24px;}
	.st10{fill:none;stroke:#434043;stroke-width:0.7717;stroke-linecap:round;stroke-linejoin:round;stroke-miterlimit:10;}
</style>
<g id="BACKGROUND" class="st0">
	<rect x="-84.5" y="-121.6" class="st1" width="500" height="500"/>
</g>
<g id="OBJECTS">
	<g>
		<g>
			<path class="st2" d="M32.8,40.6c1.3,2.4,2.5,5,3.8,7.5c0.7,1.3,1.3,2.7,2,4h1.8c-1.9-3.6-3.8-7.7-5.5-11.5H32.8z"/>
			<path class="st2" d="M95.2,56.7c0-0.1,0.1-0.3,0.1-0.4c0.1-0.3,0.1-0.7,0.2-1.1h-4.4c-0.1,0.6-0.3,1-0.4,1.2
				c-1.4,2.4-36.8,7.7-42.4,6.2c-1.7-0.4-3.8-3.4-6.1-7.5h-1.9c3.5,6.6,7,11.9,10.6,11.9c13.4,0,39.9-4.5,43.5-8.1
				C94.7,58.6,95,57.7,95.2,56.7z"/>
			<path class="st2" d="M91.6,52.1h4.2c0.2-1.8,0.3-3.8,0.4-5.6c0.1-1.9,0.2-3.9,0.4-5.8h-3.9C92.5,44.5,92.1,48.9,91.6,52.1z"/>
			<path class="st3" d="M34.9,40.6c1.8,3.8,3.7,7.8,5.5,11.5h51.2c0.5-3.2,0.9-7.5,1.2-11.5H34.9z"/>
			<path class="st4" d="M93.4,29.8H31.2c0.7,1.4,1.5,2.9,2.2,4.6h59.6C93.2,32.6,93.3,31,93.4,29.8z"/>
			<path class="st5" d="M48.2,63.8c5.6,1.4,41-3.9,42.4-6.2c0.1-0.2,0.3-0.7,0.4-1.2H42.1C44.4,60.4,46.5,63.4,48.2,63.8z"/>
			<path class="st6" d="M104.8,24.6c-5.1,0-7,5.9-7.8,12.9h-4H33.5h-2.3c-4.6-8.1-9.7-14.5-16.4-14.5c-0.9,0-1.5,0.7-1.5,1.5
				c0,0.9,0.7,1.5,1.5,1.5c4.7,0,9,5,12.8,11.4H27c-0.9,0-1.5,0.7-1.5,1.5c0,0.9,0.7,1.5,1.5,1.5h2.3c1.6,2.9,3.1,5.9,4.5,8.8
				c0.4,0.9,0.9,1.8,1.3,2.6h-0.5c-0.9,0-1.5,0.7-1.5,1.5c0,0.9,0.7,1.5,1.5,1.5h2.1c4.4,8.5,8.6,15,14.1,15c9.5,0,29.4-2.6,39.7-6
				c-7.6,6.6-22.6,9.5-34.3,11.8c-11.3,2.2-16.8,3.4-17.4,6.7c-0.2,1,0.1,1.9,0.8,2.7c1.8,2,6.3,2.3,8.9,2.3v1.9
				C47,90,46,91.5,46,93.2c0,2.3,1.9,4.1,4.1,4.1c2.3,0,4.1-1.9,4.1-4.1c0-1.7-1.1-3.2-2.6-3.8v-1.9h34.1v1.9
				c-1.5,0.6-2.6,2.1-2.6,3.8c0,2.3,1.9,4.1,4.1,4.1c2.3,0,4.1-1.9,4.1-4.1c0-1.7-1.1-3.2-2.6-3.8v-1.9h8.1c0.9,0,1.5-0.7,1.5-1.5
				c0-0.9-0.7-1.5-1.5-1.5l-9.6,0c0,0,0,0,0,0c0,0,0,0,0,0l-37.1,0c0,0,0,0,0,0s0,0,0,0H50c-4.1,0.2-7.8-0.5-8.1-1.3
				c0.7-1.4,8.9-3,14.9-4.2c16.4-3.2,38.8-7.6,41.5-21.9c0-0.1,0-0.2,0.1-0.2c0,0,0-0.1,0-0.1c0,0,0,0,0,0c0.1-0.4,0.2-0.9,0.2-1.4
				h1.3c0.9,0,1.5-0.7,1.5-1.5c0-0.9-0.7-1.5-1.5-1.5h-1c0.1-1.6,0.3-3.4,0.4-5.4c0.1-1.9,0.3-4,0.4-6h1.1c0.9,0,1.5-0.7,1.5-1.5
				c0-0.9-0.7-1.5-1.5-1.5h-0.7c0.7-5.3,2-9.8,4.7-9.8c0.9,0,1.5-0.7,1.5-1.5C106.4,25.3,105.7,24.6,104.8,24.6z M40.2,55.2h1.9
				h48.9h4.4c-0.1,0.4-0.1,0.8-0.2,1.1c0,0.1-0.1,0.3-0.1,0.4c-0.2,1.1-0.5,1.9-0.9,2.3c-3.6,3.6-30,8.1-43.5,8.1
				C47.3,67,43.7,61.7,40.2,55.2z M96.3,46.4c-0.1,1.8-0.2,3.8-0.4,5.6h-4.2H40.5h-1.8c-0.7-1.3-1.3-2.7-2-4c-1.2-2.5-2.5-5-3.8-7.5
				h2.1h57.9h3.9C96.5,42.5,96.4,44.5,96.3,46.4z"/>
		</g>
		<g>
			<g>
				<text transform="matrix(1 0 0 1 128.8324 67.5729)"><tspan x="0" y="0" class="st6 st7 st8">SHOP </tspan><tspan x="111.8" y="0" class="st6 st7 st9">ESAY</tspan></text>
			</g>
			<line class="st10" x1="114.9" y1="34.4" x2="114.9" y2="82.9"/>
		</g>
	</g>
</g>
</svg>
