<?xml version="1.0" encoding="utf-8"?>
<!-- Generator: Adobe Illustrator 24.0.1, SVG Export Plug-In . SVG Version: 6.00 Build 0)  -->
<svg version="1.1" xmlns="http://www.w3.org/2000/svg" xmlns:xlink="http://www.w3.org/1999/xlink" x="0px" y="0px"
	 viewBox="0 0 500 500" style="enable-background:new 0 0 500 500;" xml:space="preserve">
<style type="text/css">
	.st0{display:none;}
	.st1{display:inline;fill:#FFFFFF;}
	.st2{fill:#FFFFFF;}
	.st3{font-family:'Poppins-ExtraBoldItalic';}
	.st4{font-size:39.1306px;}
	.st5{fill:#D6D4D2;}
	.st6{font-family:'Poppins-Regular';}
	.st7{font-size:26.5614px;}
	.st8{fill:none;stroke:#434043;stroke-width:0.7717;stroke-linecap:round;stroke-linejoin:round;stroke-miterlimit:10;}
</style>
<g id="BACKGROUND" class="st0">
	<rect class="st1" width="500" height="500"/>
</g>
<g id="OBJECTS">
	<g>
		<g>
			<path class="st2" d="M149,229.4c1.3,2.4,2.5,5,3.8,7.5c0.7,1.3,1.3,2.7,2,4h1.8c-1.9-3.6-3.8-7.7-5.5-11.5H149z"/>
			<path class="st2" d="M211.4,245.5c0-0.1,0.1-0.3,0.1-0.4c0.1-0.3,0.1-0.7,0.2-1.1h-4.4c-0.1,0.6-0.3,1-0.4,1.2
				c-1.4,2.4-36.8,7.7-42.4,6.2c-1.7-0.4-3.8-3.4-6.1-7.5h-1.9c3.5,6.6,7,11.9,10.6,11.9c13.4,0,39.9-4.5,43.5-8.1
				C210.8,247.4,211.1,246.6,211.4,245.5z"/>
			<path class="st2" d="M207.8,240.9h4.2c0.2-1.8,0.3-3.8,0.4-5.6c0.1-1.9,0.2-3.9,0.4-5.8H209C208.7,233.4,208.3,237.7,207.8,240.9
				z"/>
			<path class="st2" d="M151.1,229.4c1.8,3.8,3.7,7.8,5.5,11.5h51.2c0.5-3.2,0.9-7.5,1.2-11.5H151.1z"/>
			<path class="st2" d="M209.6,218.6h-62.2c0.7,1.4,1.5,2.9,2.2,4.6h59.6C209.4,221.4,209.5,219.8,209.6,218.6z"/>
			<path class="st2" d="M164.4,252.7c5.6,1.4,41-3.9,42.4-6.2c0.1-0.2,0.3-0.7,0.4-1.2h-48.9C160.6,249.3,162.7,252.2,164.4,252.7z"
				/>
			<path class="st2" d="M221,213.4c-5.1,0-7,5.9-7.8,12.9h-4h-59.6h-2.3c-4.6-8.1-9.7-14.5-16.4-14.5c-0.9,0-1.5,0.7-1.5,1.5
				c0,0.9,0.7,1.5,1.5,1.5c4.7,0,9,5,12.8,11.4h-0.6c-0.9,0-1.5,0.7-1.5,1.5c0,0.9,0.7,1.5,1.5,1.5h2.3c1.6,2.9,3.1,5.9,4.5,8.8
				c0.4,0.9,0.9,1.8,1.3,2.6h-0.5c-0.9,0-1.5,0.7-1.5,1.5c0,0.9,0.7,1.5,1.5,1.5h2.1c4.4,8.5,8.6,15,14.1,15c9.5,0,29.4-2.6,39.7-6
				c-7.6,6.6-22.6,9.5-34.3,11.8c-11.3,2.2-16.8,3.4-17.4,6.7c-0.2,1,0.1,1.9,0.8,2.7c1.8,2,6.3,2.3,8.9,2.3v1.9
				c-1.5,0.6-2.6,2.1-2.6,3.8c0,2.3,1.9,4.1,4.1,4.1c2.3,0,4.1-1.9,4.1-4.1c0-1.7-1.1-3.2-2.6-3.8v-1.9h34.1v1.9
				c-1.5,0.6-2.6,2.1-2.6,3.8c0,2.3,1.9,4.1,4.1,4.1c2.3,0,4.1-1.9,4.1-4.1c0-1.7-1.1-3.2-2.6-3.8v-1.9h8.1c0.9,0,1.5-0.7,1.5-1.5
				c0-0.9-0.7-1.5-1.5-1.5l-9.6,0c0,0,0,0,0,0s0,0,0,0l-37.1,0c0,0,0,0,0,0c0,0,0,0,0,0h-0.1c-4.1,0.2-7.8-0.5-8.1-1.3
				c0.7-1.4,8.9-3,14.9-4.2c16.4-3.2,38.8-7.6,41.5-21.9c0-0.1,0-0.2,0.1-0.2c0,0,0-0.1,0-0.1c0,0,0,0,0,0c0.1-0.4,0.2-0.9,0.2-1.4
				h1.3c0.9,0,1.5-0.7,1.5-1.5c0-0.9-0.7-1.5-1.5-1.5h-1c0.1-1.6,0.3-3.4,0.4-5.4c0.1-1.9,0.3-4,0.4-6h1.1c0.9,0,1.5-0.7,1.5-1.5
				c0-0.9-0.7-1.5-1.5-1.5h-0.7c0.7-5.3,2-9.8,4.7-9.8c0.9,0,1.5-0.7,1.5-1.5C222.6,214.1,221.9,213.4,221,213.4z M156.4,244h1.9
				h48.9h4.4c-0.1,0.4-0.1,0.8-0.2,1.1c0,0.1-0.1,0.3-0.1,0.4c-0.2,1.1-0.5,1.9-0.9,2.3c-3.6,3.6-30,8.1-43.5,8.1
				C163.5,255.9,159.9,250.5,156.4,244z M212.5,235.3c-0.1,1.8-0.2,3.8-0.4,5.6h-4.2h-51.2h-1.8c-0.7-1.3-1.3-2.7-2-4
				c-1.2-2.5-2.5-5-3.8-7.5h2.1H209h3.9C212.7,231.4,212.6,233.3,212.5,235.3z"/>
		</g>
		<g>
			<g>
				<text transform="matrix(1 0 0 1 243.0164 246.7378)" class="st2 st3 st4">Smart</text>
				<text transform="matrix(1 0 0 1 243.0154 272.9087)" class="st5 st6 st7">Shopping</text>
			</g>
			<line class="st8" x1="231.1" y1="223.2" x2="231.1" y2="271.7"/>
		</g>
	</g>
</g>
</svg>
